<?xml version="1.0" encoding="UTF-8" standalone="no"?>
<!DOCTYPE svg PUBLIC "-//W3C//DTD SVG 1.1//EN"
 "http://www.w3.org/Graphics/SVG/1.1/DTD/svg11.dtd">
<!-- Generated by graphviz version 2.44.1 (20200629.0846)
 -->
<!-- Title: lista Pages: 1 -->
<svg width="611pt" height="139pt"
 viewBox="0.00 0.00 611.26 138.89" xmlns="http://www.w3.org/2000/svg" xmlns:xlink="http://www.w3.org/1999/xlink">
<g id="graph0" class="graph" transform="scale(1 1) rotate(0) translate(4 134.89)">
<title>lista</title>
<polygon fill="white" stroke="transparent" points="-4,4 -4,-134.89 607.26,-134.89 607.26,4 -4,4"/>
<text text-anchor="middle" x="301.63" y="-7.8" font-family="Times New Roman,serif" font-size="14.00">&#39;&gt;&gt;&gt;Personas&lt;&lt;&lt;&#39;</text>
<!-- &#39;Luis&#39; -->
<g id="node1" class="node">
<title>&#39;Luis&#39;</title>
<ellipse fill="Blueviolet" stroke="black" cx="30.55" cy="-76.95" rx="30.59" ry="30.59"/>
<text text-anchor="middle" x="30.55" y="-73.25" font-family="Times New Roman,serif" font-size="14.00">&#39;Luis&#39;</text>
</g>
<!-- &#39;Persona&#39;1 -->
<g id="node2" class="node">
<title>&#39;Persona&#39;1</title>
<ellipse fill="forestgreen" stroke="black" cx="149.19" cy="-76.95" rx="48.19" ry="48.19"/>
<text text-anchor="middle" x="149.19" y="-73.25" font-family="Times New Roman,serif" font-size="14.00">&#39;Persona&#39;1</text>
</g>
<!-- &#39;Luis&#39;&#45;&gt;&#39;Persona&#39;1 -->
<g id="edge1" class="edge">
<title>&#39;Luis&#39;&#45;&gt;&#39;Persona&#39;1</title>
<path fill="none" stroke="black" d="M61.28,-76.95C70.29,-76.95 80.51,-76.95 90.7,-76.95"/>
<polygon fill="black" stroke="black" points="90.83,-80.45 100.83,-76.95 90.83,-73.45 90.83,-80.45"/>
<text text-anchor="middle" x="81.09" y="-80.75" font-family="Times New Roman,serif" font-size="14.00"> </text>
</g>
<!-- &#39;Persona&#39;1&#45;&gt;&#39;Luis&#39; -->
<g id="edge2" class="edge">
<title>&#39;Persona&#39;1&#45;&gt;&#39;Luis&#39;</title>
<path fill="none" stroke="black" d="M104.57,-58.67C96.17,-56.94 87.4,-56.35 79.09,-57.95 75.43,-58.65 71.69,-59.63 68,-60.79"/>
<polygon fill="black" stroke="black" points="66.69,-57.54 58.42,-64.16 69.01,-64.14 66.69,-57.54"/>
<text text-anchor="middle" x="81.09" y="-61.75" font-family="Times New Roman,serif" font-size="14.00"> </text>
</g>
<!-- &#39;Persona&#39;2 -->
<g id="node3" class="node">
<title>&#39;Persona&#39;2</title>
<ellipse fill="forestgreen" stroke="black" cx="285.38" cy="-76.95" rx="48.19" ry="48.19"/>
<text text-anchor="middle" x="285.38" y="-73.25" font-family="Times New Roman,serif" font-size="14.00">&#39;Persona&#39;2</text>
</g>
<!-- &#39;Persona&#39;1&#45;&gt;&#39;Persona&#39;2 -->
<g id="edge3" class="edge">
<title>&#39;Persona&#39;1&#45;&gt;&#39;Persona&#39;2</title>
<path fill="none" stroke="black" d="M197.5,-76.95C207.02,-76.95 217.13,-76.95 226.95,-76.95"/>
<polygon fill="black" stroke="black" points="227.05,-80.45 237.05,-76.95 227.05,-73.45 227.05,-80.45"/>
<text text-anchor="middle" x="217.29" y="-80.75" font-family="Times New Roman,serif" font-size="14.00"> </text>
</g>
<!-- &#39;Persona&#39;2&#45;&gt;&#39;Persona&#39;1 -->
<g id="edge4" class="edge">
<title>&#39;Persona&#39;2&#45;&gt;&#39;Persona&#39;1</title>
<path fill="none" stroke="black" d="M239.57,-62.07C232.84,-60.36 225.93,-58.89 219.29,-57.95 214.39,-57.24 209.34,-57.22 204.31,-57.68"/>
<polygon fill="black" stroke="black" points="203.43,-54.27 194.07,-59.24 204.48,-61.19 203.43,-54.27"/>
<text text-anchor="middle" x="217.29" y="-61.75" font-family="Times New Roman,serif" font-size="14.00"> </text>
</g>
<!-- &#39;Disponible&#39; -->
<g id="node4" class="node">
<title>&#39;Disponible&#39;</title>
<ellipse fill="White" stroke="black" cx="427.42" cy="-76.95" rx="53.89" ry="53.89"/>
<text text-anchor="middle" x="427.42" y="-73.25" font-family="Times New Roman,serif" font-size="14.00">&#39;Disponible&#39;</text>
</g>
<!-- &#39;Persona&#39;2&#45;&gt;&#39;Disponible&#39; -->
<g id="edge5" class="edge">
<title>&#39;Persona&#39;2&#45;&gt;&#39;Disponible&#39;</title>
<path fill="none" stroke="black" d="M333.79,-76.95C343.22,-76.95 353.25,-76.95 363.11,-76.95"/>
<polygon fill="black" stroke="black" points="363.28,-80.45 373.28,-76.95 363.28,-73.45 363.28,-80.45"/>
<text text-anchor="middle" x="353.48" y="-80.75" font-family="Times New Roman,serif" font-size="14.00"> </text>
</g>
<!-- &#39;Disponible&#39;&#45;&gt;&#39;Persona&#39;2 -->
<g id="edge6" class="edge">
<title>&#39;Disponible&#39;&#45;&gt;&#39;Persona&#39;2</title>
<path fill="none" stroke="black" d="M376.32,-58.65C368.08,-57.26 359.58,-56.79 351.48,-57.95 348.05,-58.43 344.56,-59.06 341.05,-59.79"/>
<polygon fill="black" stroke="black" points="340.14,-56.41 331.19,-62.07 341.72,-63.23 340.14,-56.41"/>
<text text-anchor="middle" x="353.48" y="-61.75" font-family="Times New Roman,serif" font-size="14.00"> </text>
</g>
<!-- &#39;Manuel&#39; -->
<g id="node5" class="node">
<title>&#39;Manuel&#39;</title>
<ellipse fill="tomato" stroke="black" cx="562.31" cy="-76.95" rx="40.89" ry="40.89"/>
<text text-anchor="middle" x="562.31" y="-73.25" font-family="Times New Roman,serif" font-size="14.00">&#39;Manuel&#39;</text>
</g>
<!-- &#39;Disponible&#39;&#45;&gt;&#39;Manuel&#39; -->
<g id="edge7" class="edge">
<title>&#39;Disponible&#39;&#45;&gt;&#39;Manuel&#39;</title>
<path fill="none" stroke="black" d="M481.71,-76.95C491.36,-76.95 501.4,-76.95 510.96,-76.95"/>
<polygon fill="black" stroke="black" points="511.11,-80.45 521.11,-76.95 511.11,-73.45 511.11,-80.45"/>
<text text-anchor="middle" x="501.37" y="-80.75" font-family="Times New Roman,serif" font-size="14.00"> </text>
</g>
<!-- &#39;Manuel&#39;&#45;&gt;&#39;Disponible&#39; -->
<g id="edge8" class="edge">
<title>&#39;Manuel&#39;&#45;&gt;&#39;Disponible&#39;</title>
<path fill="none" stroke="black" d="M523.71,-62.72C517.03,-60.74 510.06,-59.01 503.37,-57.95 498.49,-57.17 493.46,-57 488.43,-57.3"/>
<polygon fill="black" stroke="black" points="487.68,-53.86 478.15,-58.49 488.49,-60.81 487.68,-53.86"/>
<text text-anchor="middle" x="501.37" y="-61.75" font-family="Times New Roman,serif" font-size="14.00"> </text>
</g>
</g>
</svg>
